# xmcd
# 
# Track frame offsets:
#     150
#     18246
#     34217
#     59653
#     74347
#     92621
#     112031
# 
# Disc length: 1711
# 
# Revision: 0
# Processed by: cddbd v1.5.1PL2 Copyright (c) Steve Scherf et al.
# Submitted via: BonkEnc v1.0beta3
# 
DISCID=5d06ad07
DTITLE=Nasty Ned - A Storm Is Coming
DYEAR=1900
DGENRE=Blues
TTITLE0=When that Lightning Strikes
TTITLE1=I can't get you outta my mind
TTITLE2=Time isn't healing
TTITLE3=Boogie Man
TTITLE4=The right went wrong
TTITLE5=In the heart of a man
TTITLE6=I'm not satisfied
EXTD=
EXTT0=
EXTT1=
EXTT2=
EXTT3=
EXTT4=
EXTT5=
EXTT6=
PLAYORDER=
